<svg xmlns="http://www.w3.org/2000/svg" width="21" height="20" viewBox="0 0 21 20">
    <g fill="none" fill-rule="evenodd">
        <path fill="#4B4B4B" fill-rule="nonzero" d="M9.049 2C5.21 2 2.1 4.963 2.1 8.618c0 3.655 3.111 6.618 6.949 6.618 3.837 0 6.948-2.963 6.948-6.618C15.997 4.963 12.887 2 9.05 2zm0 1.778c2.806 0 5.082 2.167 5.082 4.84s-2.276 4.84-5.082 4.84c-2.807 0-5.082-2.167-5.082-4.84s2.275-4.84 5.082-4.84z" opacity=".5"/>
        <path fill="#4B4B4B" fill-rule="nonzero" d="M14.601 12.598l3.613 3.442c.36.343.375.915.031 1.275l-.031.032c-.384.365-.988.365-1.372 0l-3.614-3.442c.519-.372.982-.813 1.373-1.307z" opacity=".5"/>
    </g>
</svg>
