<svg xmlns="http://www.w3.org/2000/svg" width="18" height="18" viewBox="0 0 18 18">
    <g fill="none" fill-rule="evenodd">
        <g fill="#4B4B4B" opacity=".8">
            <path d="M0 2.727c0-.301.244-.545.545-.545h9.819c.3 0 .545.244.545.545 0 .302-.244.546-.545.546H.545c-.3 0-.545-.244-.545-.546z" transform="translate(3.5 3)"/>
            <path d="M4.364 1.09c-.145 0-.284.058-.386.16-.102.103-.16.242-.16.386v.546h3.273v-.546c0-.144-.058-.283-.16-.385-.102-.103-.24-.16-.386-.16H4.364zm3.818 1.092v-.546c0-.434-.173-.85-.48-1.157C7.397.172 6.98 0 6.546 0H4.364c-.434 0-.85.172-1.157.48-.307.306-.48.722-.48 1.156v.546h-1.09c-.302 0-.546.244-.546.545v7.637c0 .434.172.85.48 1.157.306.307.722.479 1.156.479h5.455c.434 0 .85-.172 1.157-.48.307-.306.48-.722.48-1.156V2.727c0-.301-.245-.545-.546-.545H8.182zm-6 1.09v7.092c0 .144.057.283.16.385.102.103.24.16.385.16h5.455c.144 0 .283-.057.386-.16.102-.102.16-.24.16-.385V3.273H2.181z" transform="translate(3.5 3)"/>
            <path d="M4.364 4.91c.3 0 .545.243.545.545v3.272c0 .302-.244.546-.545.546-.302 0-.546-.244-.546-.546V5.455c0-.302.244-.546.546-.546zM6.545 4.91c.302 0 .546.243.546.545v3.272c0 .302-.244.546-.546.546-.3 0-.545-.244-.545-.546V5.455c0-.302.244-.546.545-.546z" transform="translate(3.5 3)"/>
        </g>
    </g>
</svg>
